<?xml version="1.0" encoding="utf-8" standalone="no"?>
<!DOCTYPE svg PUBLIC "-//W3C//DTD SVG 1.1//EN"
  "http://www.w3.org/Graphics/SVG/1.1/DTD/svg11.dtd">
<svg xmlns:xlink="http://www.w3.org/1999/xlink" width="740.16pt" height="423.36pt" viewBox="0 0 740.16 423.36" xmlns="http://www.w3.org/2000/svg" version="1.1">
 <metadata>
  <rdf:RDF xmlns:dc="http://purl.org/dc/elements/1.1/" xmlns:cc="http://creativecommons.org/ns#" xmlns:rdf="http://www.w3.org/1999/02/22-rdf-syntax-ns#">
   <cc:Work>
    <dc:type rdf:resource="http://purl.org/dc/dcmitype/StillImage"/>
    <dc:format>image/svg+xml</dc:format>
    <dc:creator>
     <cc:Agent>
      <dc:title>Matplotlib v3.10.8, https://matplotlib.org/</dc:title>
     </cc:Agent>
    </dc:creator>
   </cc:Work>
  </rdf:RDF>
 </metadata>
 <defs>
  <style type="text/css">*{stroke-linejoin: round; stroke-linecap: butt}</style>
 </defs>
 <g id="figure_1">
  <g id="patch_1">
   <path d="M 0 423.36 
L 740.16 423.36 
L 740.16 0 
L 0 0 
z
" style="fill: #fbfbfa"/>
  </g>
  <g id="axes_1">
   <g id="patch_2">
    <path d="M 31.68 398.88 
L 708.48 398.88 
Q 715.68 398.88 715.68 391.68 
L 715.68 31.68 
Q 715.68 24.48 708.48 24.48 
L 31.68 24.48 
Q 24.48 24.48 24.48 31.68 
L 24.48 391.68 
Q 24.48 398.88 31.68 398.88 
z
" clip-path="url(#pd22388adfb)" style="fill: #fbfbfa; stroke: #4e545e; stroke-width: 1.2; stroke-linejoin: miter"/>
   </g>
   <g id="patch_3">
    <path d="M 53.28 377.28 
L 506.88 377.28 
Q 514.08 377.28 514.08 370.08 
L 514.08 92.88 
Q 514.08 85.68 506.88 85.68 
L 53.28 85.68 
Q 46.08 85.68 46.08 92.88 
L 46.08 370.08 
Q 46.08 377.28 53.28 377.28 
z
" clip-path="url(#pd22388adfb)" style="fill: #f1f2f0; stroke: #c9cdc9; stroke-width: 1.2; stroke-linejoin: miter"/>
   </g>
   <g id="patch_4">
    <path d="M 74.88 355.68 
L 427.68 355.68 
Q 434.88 355.68 434.88 348.48 
L 434.88 143.28 
Q 434.88 136.08 427.68 136.08 
L 74.88 136.08 
Q 67.68 136.08 67.68 143.28 
L 67.68 348.48 
Q 67.68 355.68 74.88 355.68 
z
" clip-path="url(#pd22388adfb)" style="fill: #e9ebe8; stroke: #c9cdc9; stroke-width: 1.2; stroke-linejoin: miter"/>
   </g>
   <g id="patch_5">
    <path d="M 96.48 334.08 
L 406.08 334.08 
Q 413.28 334.08 413.28 326.88 
L 413.28 193.68 
Q 413.28 186.48 406.08 186.48 
L 96.48 186.48 
Q 89.28 186.48 89.28 193.68 
L 89.28 326.88 
Q 89.28 334.08 96.48 334.08 
z
" clip-path="url(#pd22388adfb)" style="fill: #dfe2de; stroke: #c9cdc9; stroke-width: 1.2; stroke-linejoin: miter"/>
   </g>
   <g id="patch_6">
    <path d="M 118.08 312.48 
L 384.48 312.48 
Q 391.68 312.48 391.68 305.28 
L 391.68 244.08 
Q 391.68 236.88 384.48 236.88 
L 118.08 236.88 
Q 110.88 236.88 110.88 244.08 
L 110.88 305.28 
Q 110.88 312.48 118.08 312.48 
z
" clip-path="url(#pd22388adfb)" style="fill: #d3d7d2; stroke: #c9cdc9; stroke-width: 1.2; stroke-linejoin: miter"/>
   </g>
   <g id="patch_7">
    <path d="M 570.24 186.48 
L 695.52 186.48 
Q 701.28 186.48 701.28 180.72 
L 701.28 134.64 
Q 701.28 128.88 695.52 128.88 
L 570.24 128.88 
Q 564.48 128.88 564.48 134.64 
L 564.48 180.72 
Q 564.48 186.48 570.24 186.48 
z
" clip-path="url(#pd22388adfb)" style="fill: #f1f2f0; stroke: #c9cdc9; stroke-width: 1.3; stroke-linejoin: miter"/>
   </g>
   <g id="patch_8">
    <path d="M 570.24 344.88 
L 695.52 344.88 
Q 701.28 344.88 701.28 339.12 
L 701.28 293.04 
Q 701.28 287.28 695.52 287.28 
L 570.24 287.28 
Q 564.48 287.28 564.48 293.04 
L 564.48 339.12 
Q 564.48 344.88 570.24 344.88 
z
" clip-path="url(#pd22388adfb)" style="fill: #f1f2f0; stroke: #c9cdc9; stroke-width: 1.3; stroke-linejoin: miter"/>
   </g>
   <g id="text_1">
    <text style="font-weight: 600; font-size: 13px; font-family: 'Pretendard', 'system-ui', 'DejaVu Sans', sans-serif; text-anchor: start; fill: #16181d" x="37.44" y="47.373125" transform="rotate(-0 37.44 47.373125)">Graph engineering</text>
   </g>
   <g id="text_2">
    <text style="font-size: 11px; font-family: 'Pretendard', 'system-ui', 'DejaVu Sans', sans-serif; text-anchor: start; fill: #4e545e" x="37.44" y="65.497422" transform="rotate(-0 37.44 65.497422)">several agents' loops, wired together</text>
   </g>
   <g id="text_3">
    <text style="font-weight: 600; font-size: 13px; font-family: 'Pretendard', 'system-ui', 'DejaVu Sans', sans-serif; text-anchor: start; fill: #16181d" x="59.04" y="108.573125" transform="rotate(-0 59.04 108.573125)">Loop engineering</text>
   </g>
   <g id="text_4">
    <text style="font-size: 11px; font-family: 'Pretendard', 'system-ui', 'DejaVu Sans', sans-serif; text-anchor: start; fill: #4e545e" x="59.04" y="126.697422" transform="rotate(-0 59.04 126.697422)">one agent, repeated until a check passes</text>
   </g>
   <g id="text_5">
    <text style="font-weight: 600; font-size: 13px; font-family: 'Pretendard', 'system-ui', 'DejaVu Sans', sans-serif; text-anchor: start; fill: #16181d" x="80.64" y="158.973125" transform="rotate(-0 80.64 158.973125)">Harness engineering</text>
   </g>
   <g id="text_6">
    <text style="font-size: 11px; font-family: 'Pretendard', 'system-ui', 'DejaVu Sans', sans-serif; text-anchor: start; fill: #4e545e" x="80.64" y="177.151562" transform="rotate(-0 80.64 177.151562)">tools, memory and skills around the model</text>
   </g>
   <g id="text_7">
    <text style="font-weight: 600; font-size: 13px; font-family: 'Pretendard', 'system-ui', 'DejaVu Sans', sans-serif; text-anchor: start; fill: #16181d" x="102.24" y="209.373125" transform="rotate(-0 102.24 209.373125)">Context engineering</text>
   </g>
   <g id="text_8">
    <text style="font-size: 11px; font-family: 'Pretendard', 'system-ui', 'DejaVu Sans', sans-serif; text-anchor: start; fill: #4e545e" x="102.24" y="227.432969" transform="rotate(-0 102.24 227.432969)">what the model can see when it answers</text>
   </g>
   <g id="text_9">
    <text style="font-weight: 600; font-size: 13px; font-family: 'Pretendard', 'system-ui', 'DejaVu Sans', sans-serif; text-anchor: start; fill: #16181d" x="123.84" y="259.773125" transform="rotate(-0 123.84 259.773125)">Prompt engineering</text>
   </g>
   <g id="text_10">
    <text style="font-size: 11px; font-family: 'Pretendard', 'system-ui', 'DejaVu Sans', sans-serif; text-anchor: start; fill: #4e545e" x="123.84" y="278.016016" transform="rotate(-0 123.84 278.016016)">the words of one request</text>
   </g>
   <g id="text_11">
    <text style="font-weight: 600; font-size: 13px; font-family: 'Pretendard', 'system-ui', 'DejaVu Sans', sans-serif; text-anchor: middle; fill: #16181d" x="632.88" y="152.990703" transform="rotate(-0 632.88 152.990703)">Agent B</text>
   </g>
   <g id="text_12">
    <text style="font-size: 11px; font-family: 'Pretendard', 'system-ui', 'DejaVu Sans', sans-serif; text-anchor: middle; fill: #4e545e" x="632.88" y="168.876719" transform="rotate(-0 632.88 168.876719)">its own loop</text>
   </g>
   <g id="text_13">
    <text style="font-weight: 600; font-size: 13px; font-family: 'Pretendard', 'system-ui', 'DejaVu Sans', sans-serif; text-anchor: middle; fill: #16181d" x="632.88" y="311.454687" transform="rotate(-0 632.88 311.454687)">Agent C</text>
   </g>
   <g id="text_14">
    <text style="font-size: 11px; font-family: 'Pretendard', 'system-ui', 'DejaVu Sans', sans-serif; text-anchor: middle; fill: #4e545e" x="632.88" y="327.276719" transform="rotate(-0 632.88 327.276719)">its own loop</text>
   </g>
   <g id="patch_9">
    <path d="M 463.68 341.28 
Q 547.92 247.68 464.87668 155.409645 
" clip-path="url(#pd22388adfb)" style="fill: none; stroke: #4e545e; stroke-width: 1.6; stroke-linecap: round"/>
    <path d="M 466.422732 161.014083 
L 464.87668 155.409645 
L 470.287862 157.535466 
z
" clip-path="url(#pd22388adfb)" style="fill: #4e545e; stroke: #4e545e; stroke-width: 1.6; stroke-linecap: round"/>
   </g>
   <g id="patch_10">
    <path d="M 514.08 157.68 
Q 539.28 157.68 562.914752 157.68 
" clip-path="url(#pd22388adfb)" style="fill: none; stroke: #4e545e; stroke-width: 1.4; stroke-linecap: round"/>
    <path d="M 557.714752 155.08 
L 562.914752 157.68 
L 557.714752 160.28 
z
" clip-path="url(#pd22388adfb)" style="fill: #4e545e; stroke: #4e545e; stroke-width: 1.4; stroke-linecap: round"/>
   </g>
   <g id="patch_11">
    <path d="M 514.08 316.08 
Q 539.28 316.08 562.914752 316.08 
" clip-path="url(#pd22388adfb)" style="fill: none; stroke: #4e545e; stroke-width: 1.4; stroke-linecap: round"/>
    <path d="M 557.714752 313.48 
L 562.914752 316.08 
L 557.714752 318.68 
z
" clip-path="url(#pd22388adfb)" style="fill: #4e545e; stroke: #4e545e; stroke-width: 1.4; stroke-linecap: round"/>
   </g>
   <g id="patch_12">
    <path d="M 632.88 186.48 
Q 632.88 236.88 632.88 285.714752 
" clip-path="url(#pd22388adfb)" style="fill: none; stroke: #4e545e; stroke-width: 1.4; stroke-linecap: round"/>
    <path d="M 635.48 280.514752 
L 632.88 285.714752 
L 630.28 280.514752 
z
" clip-path="url(#pd22388adfb)" style="fill: #4e545e; stroke: #4e545e; stroke-width: 1.4; stroke-linecap: round"/>
   </g>
   <g id="text_15">
    <text style="font-size: 11px; font-family: 'Pretendard', 'system-ui', 'DejaVu Sans', sans-serif; fill: #4e545e" transform="translate(496.712969 263.681562) rotate(-90)">repeat</text>
   </g>
  </g>
 </g>
 <defs>
  <clipPath id="pd22388adfb">
   <rect x="10.08" y="10.08" width="720" height="403.2"/>
  </clipPath>
 </defs>
</svg>
