<?xml version="1.0" encoding="utf-8" standalone="no"?>
<!DOCTYPE svg PUBLIC "-//W3C//DTD SVG 1.1//EN"
  "http://www.w3.org/Graphics/SVG/1.1/DTD/svg11.dtd">
<svg xmlns:xlink="http://www.w3.org/1999/xlink" width="778.468438pt" height="351.36pt" viewBox="0 0 778.468438 351.36" xmlns="http://www.w3.org/2000/svg" version="1.1">
 <metadata>
  <rdf:RDF xmlns:dc="http://purl.org/dc/elements/1.1/" xmlns:cc="http://creativecommons.org/ns#" xmlns:rdf="http://www.w3.org/1999/02/22-rdf-syntax-ns#">
   <cc:Work>
    <dc:type rdf:resource="http://purl.org/dc/dcmitype/StillImage"/>
    <dc:format>image/svg+xml</dc:format>
    <dc:creator>
     <cc:Agent>
      <dc:title>Matplotlib v3.10.8, https://matplotlib.org/</dc:title>
     </cc:Agent>
    </dc:creator>
   </cc:Work>
  </rdf:RDF>
 </metadata>
 <defs>
  <style type="text/css">*{stroke-linejoin: round; stroke-linecap: butt}</style>
 </defs>
 <g id="figure_1">
  <g id="patch_1">
   <path d="M 0 351.36 
L 778.468438 351.36 
L 778.468438 0 
L 0 0 
z
" style="fill: #fbfbfa"/>
  </g>
  <g id="axes_1">
   <g id="line2d_1">
    <path d="M 359.28 323.28 
L 359.28 24.48 
" clip-path="url(#p37ffd0c9a1)" style="fill: none; stroke: #dcdedb; stroke-width: 1.2; stroke-linecap: round"/>
   </g>
   <g id="patch_2">
    <path d="M 44.64 197.28 
L 133.92 197.28 
Q 139.68 197.28 139.68 191.52 
L 139.68 145.44 
Q 139.68 139.68 133.92 139.68 
L 44.64 139.68 
Q 38.88 139.68 38.88 145.44 
L 38.88 191.52 
Q 38.88 197.28 44.64 197.28 
z
" clip-path="url(#p37ffd0c9a1)" style="fill: #fbfbfa; stroke: #4e545e; stroke-width: 1.3; stroke-linejoin: miter"/>
   </g>
   <g id="patch_3">
    <path d="M 231.84 197.28 
L 321.12 197.28 
Q 326.88 197.28 326.88 191.52 
L 326.88 145.44 
Q 326.88 139.68 321.12 139.68 
L 231.84 139.68 
Q 226.08 139.68 226.08 145.44 
L 226.08 191.52 
Q 226.08 197.28 231.84 197.28 
z
" clip-path="url(#p37ffd0c9a1)" style="fill: #e0eaf5; stroke: #2a78d6; stroke-width: 1.3; stroke-linejoin: miter"/>
   </g>
   <g id="patch_4">
    <path d="M 383.04 112.68 
L 465.12 112.68 
Q 470.88 112.68 470.88 106.92 
L 470.88 71.64 
Q 470.88 65.88 465.12 65.88 
L 383.04 65.88 
Q 377.28 65.88 377.28 71.64 
L 377.28 106.92 
Q 377.28 112.68 383.04 112.68 
z
" clip-path="url(#p37ffd0c9a1)" style="fill: #fbfbfa; stroke: #4e545e; stroke-width: 1.3; stroke-linejoin: miter"/>
   </g>
   <g id="patch_5">
    <path d="M 383.04 292.68 
L 465.12 292.68 
Q 470.88 292.68 470.88 286.92 
L 470.88 172.44 
Q 470.88 166.68 465.12 166.68 
L 383.04 166.68 
Q 377.28 166.68 377.28 172.44 
L 377.28 286.92 
Q 377.28 292.68 383.04 292.68 
z
" clip-path="url(#p37ffd0c9a1)" style="fill: #f1f2f0; stroke: #c9cdc9; stroke-width: 1.3; stroke-linejoin: miter"/>
   </g>
   <g id="patch_6">
    <path d="M 519.84 150.48 
L 594.72 150.48 
Q 600.48 150.48 600.48 144.72 
L 600.48 105.84 
Q 600.48 100.08 594.72 100.08 
L 519.84 100.08 
Q 514.08 100.08 514.08 105.84 
L 514.08 144.72 
Q 514.08 150.48 519.84 150.48 
z
" clip-path="url(#p37ffd0c9a1)" style="fill: #e0eaf5; stroke: #2a78d6; stroke-width: 1.3; stroke-linejoin: miter"/>
   </g>
   <g id="patch_7">
    <path d="M 653.04 150.48 
L 742.32 150.48 
Q 748.08 150.48 748.08 144.72 
L 748.08 105.84 
Q 748.08 100.08 742.32 100.08 
L 653.04 100.08 
Q 647.28 100.08 647.28 105.84 
L 647.28 144.72 
Q 647.28 150.48 653.04 150.48 
z
" clip-path="url(#p37ffd0c9a1)" style="fill: #f9e8e0; stroke: #eb6834; stroke-width: 1.3; stroke-linejoin: miter"/>
   </g>
   <g id="patch_8">
    <path d="M 509.04 305.28 
L 605.52 305.28 
Q 611.28 305.28 611.28 299.52 
L 611.28 260.64 
Q 611.28 254.88 605.52 254.88 
L 509.04 254.88 
Q 503.28 254.88 503.28 260.64 
L 503.28 299.52 
Q 503.28 305.28 509.04 305.28 
z
" clip-path="url(#p37ffd0c9a1)" style="fill: #dceae5; stroke: #0f7a55; stroke-width: 1.3; stroke-linejoin: miter"/>
   </g>
   <g id="patch_9">
    <path d="M 653.04 305.28 
L 742.32 305.28 
Q 748.08 305.28 748.08 299.52 
L 748.08 260.64 
Q 748.08 254.88 742.32 254.88 
L 653.04 254.88 
Q 647.28 254.88 647.28 260.64 
L 647.28 299.52 
Q 647.28 305.28 653.04 305.28 
z
" clip-path="url(#p37ffd0c9a1)" style="fill: #fbfbfa; stroke: #4e545e; stroke-width: 1.3; stroke-linejoin: miter"/>
   </g>
   <g id="text_1">
    <text style="font-weight: 600; font-size: 13px; font-family: 'Pretendard', 'system-ui', 'DejaVu Sans', sans-serif; text-anchor: middle; fill: #16181d" x="89.28" y="163.860781" transform="rotate(-0 89.28 163.860781)">You</text>
   </g>
   <g id="text_2">
    <text style="font-size: 11px; font-family: 'Pretendard', 'system-ui', 'DejaVu Sans', sans-serif; text-anchor: middle; fill: #4e545e" x="89.28" y="179.552969" transform="rotate(-0 89.28 179.552969)">a person</text>
   </g>
   <g id="text_3">
    <text style="font-weight: 600; font-size: 13px; font-family: 'Pretendard', 'system-ui', 'DejaVu Sans', sans-serif; text-anchor: middle; fill: #16181d" x="276.48" y="163.790703" transform="rotate(-0 276.48 163.790703)">Agent</text>
   </g>
   <g id="text_4">
    <text style="font-size: 11px; font-family: 'Pretendard', 'system-ui', 'DejaVu Sans', sans-serif; text-anchor: middle; fill: #4e545e" x="276.48" y="179.552969" transform="rotate(-0 276.48 179.552969)">one reply</text>
   </g>
   <g id="text_5">
    <text style="font-weight: 600; font-size: 13px; font-family: 'Pretendard', 'system-ui', 'DejaVu Sans', sans-serif; text-anchor: middle; fill: #16181d" x="424.08" y="84.660781" transform="rotate(-0 424.08 84.660781)">You</text>
   </g>
   <g id="text_6">
    <text style="font-size: 11px; font-family: 'Pretendard', 'system-ui', 'DejaVu Sans', sans-serif; text-anchor: middle; fill: #4e545e" x="424.08" y="100.352969" transform="rotate(-0 424.08 100.352969)">a person</text>
   </g>
   <g id="text_7">
    <text style="font-weight: 600; font-size: 13px; font-family: 'Pretendard', 'system-ui', 'DejaVu Sans', sans-serif; text-anchor: middle; fill: #16181d" x="557.28" y="120.590703" transform="rotate(-0 557.28 120.590703)">Agent</text>
   </g>
   <g id="text_8">
    <text style="font-size: 11px; font-family: 'Pretendard', 'system-ui', 'DejaVu Sans', sans-serif; text-anchor: middle; fill: #4e545e" x="557.28" y="136.352969" transform="rotate(-0 557.28 136.352969)">one pass</text>
   </g>
   <g id="text_9">
    <text style="font-weight: 600; font-size: 13px; font-family: 'Pretendard', 'system-ui', 'DejaVu Sans', sans-serif; text-anchor: middle; fill: #16181d" x="697.68" y="120.660781" transform="rotate(-0 697.68 120.660781)">Check</text>
   </g>
   <g id="text_10">
    <text style="font-size: 11px; font-family: 'Pretendard', 'system-ui', 'DejaVu Sans', sans-serif; text-anchor: middle; fill: #4e545e" x="697.68" y="136.352969" transform="rotate(-0 697.68 136.352969)">runs the tests</text>
   </g>
   <g id="text_11">
    <text style="font-weight: 600; font-size: 13px; font-family: 'Pretendard', 'system-ui', 'DejaVu Sans', sans-serif; text-anchor: middle; fill: #16181d" x="557.28" y="275.460781" transform="rotate(-0 557.28 275.460781)">Memory</text>
   </g>
   <g id="text_12">
    <text style="font-size: 11px; font-family: 'Pretendard', 'system-ui', 'DejaVu Sans', sans-serif; text-anchor: middle; fill: #4e545e" x="557.28" y="291.152969" transform="rotate(-0 557.28 291.152969)">files on disk</text>
   </g>
   <g id="text_13">
    <text style="font-weight: 600; font-size: 13px; font-family: 'Pretendard', 'system-ui', 'DejaVu Sans', sans-serif; text-anchor: middle; fill: #16181d" x="697.68" y="275.460781" transform="rotate(-0 697.68 275.460781)">Done</text>
   </g>
   <g id="text_14">
    <text style="font-size: 11px; font-family: 'Pretendard', 'system-ui', 'DejaVu Sans', sans-serif; text-anchor: middle; fill: #4e545e" x="697.68" y="291.276719" transform="rotate(-0 697.68 291.276719)">you review it</text>
   </g>
   <g id="patch_10">
    <path d="M 139.68 150.48 
Q 182.88 111.6 224.916561 149.432905 
" clip-path="url(#p37ffd0c9a1)" style="fill: none; stroke: #4e545e; stroke-width: 1.4; stroke-linecap: round"/>
    <path d="M 222.790739 144.021723 
L 224.916561 149.432905 
L 219.312123 147.886853 
z
" clip-path="url(#p37ffd0c9a1)" style="fill: #4e545e; stroke: #4e545e; stroke-width: 1.4; stroke-linecap: round"/>
   </g>
   <g id="patch_11">
    <path d="M 226.08 186.48 
Q 182.88 225.36 140.843439 187.527095 
" clip-path="url(#p37ffd0c9a1)" style="fill: none; stroke: #4e545e; stroke-width: 1.4; stroke-linecap: round"/>
    <path d="M 142.969261 192.938277 
L 140.843439 187.527095 
L 146.447877 189.073147 
z
" clip-path="url(#p37ffd0c9a1)" style="fill: #4e545e; stroke: #4e545e; stroke-width: 1.4; stroke-linecap: round"/>
   </g>
   <g id="patch_12">
    <path d="M 424.08 112.68 
Q 424.08 139.68 424.08 165.114752 
" clip-path="url(#p37ffd0c9a1)" style="fill: none; stroke: #4e545e; stroke-width: 1.4; stroke-linecap: round"/>
    <path d="M 426.68 159.914752 
L 424.08 165.114752 
L 421.48 159.914752 
z
" clip-path="url(#p37ffd0c9a1)" style="fill: #4e545e; stroke: #4e545e; stroke-width: 1.4; stroke-linecap: round"/>
   </g>
   <g id="patch_13">
    <path d="M 470.88 193.68 
Q 492.48 168.48 513.06135 144.468425 
" clip-path="url(#p37ffd0c9a1)" style="fill: none; stroke: #4e545e; stroke-width: 1.4; stroke-linecap: round"/>
    <path d="M 507.703168 146.724501 
L 513.06135 144.468425 
L 511.651302 150.108616 
z
" clip-path="url(#p37ffd0c9a1)" style="fill: #4e545e; stroke: #4e545e; stroke-width: 1.4; stroke-linecap: round"/>
   </g>
   <g id="patch_14">
    <path d="M 600.48 125.28 
Q 623.88 125.28 645.714752 125.28 
" clip-path="url(#p37ffd0c9a1)" style="fill: none; stroke: #4e545e; stroke-width: 1.4; stroke-linecap: round"/>
    <path d="M 640.514752 122.68 
L 645.714752 125.28 
L 640.514752 127.88 
z
" clip-path="url(#p37ffd0c9a1)" style="fill: #4e545e; stroke: #4e545e; stroke-width: 1.4; stroke-linecap: round"/>
   </g>
   <g id="patch_15">
    <path d="M 679.68 150.48 
Q 629.28 195.84 580.043439 151.527095 
" clip-path="url(#p37ffd0c9a1)" style="fill: none; stroke: #eb6834; stroke-width: 1.4; stroke-linecap: round"/>
    <path d="M 582.169261 156.938277 
L 580.043439 151.527095 
L 585.647877 153.073147 
z
" clip-path="url(#p37ffd0c9a1)" style="fill: #eb6834; stroke: #eb6834; stroke-width: 1.4; stroke-linecap: round"/>
   </g>
   <g id="patch_16">
    <path d="M 535.68 152.045248 
Q 535.68 202.68 535.68 253.314752 
" clip-path="url(#p37ffd0c9a1)" style="fill: none; stroke: #0f7a55; stroke-width: 1.4; stroke-linecap: round"/>
    <path d="M 533.08 157.245248 
L 535.68 152.045248 
L 538.28 157.245248 
z
" clip-path="url(#p37ffd0c9a1)" style="fill: #0f7a55; stroke: #0f7a55; stroke-width: 1.4; stroke-linecap: round"/>
    <path d="M 538.28 248.114752 
L 535.68 253.314752 
L 533.08 248.114752 
z
" clip-path="url(#p37ffd0c9a1)" style="fill: #0f7a55; stroke: #0f7a55; stroke-width: 1.4; stroke-linecap: round"/>
   </g>
   <g id="patch_17">
    <path d="M 726.48 150.48 
Q 726.48 202.68 726.48 253.314752 
" clip-path="url(#p37ffd0c9a1)" style="fill: none; stroke: #4e545e; stroke-width: 1.4; stroke-linecap: round"/>
    <path d="M 729.08 248.114752 
L 726.48 253.314752 
L 723.88 248.114752 
z
" clip-path="url(#p37ffd0c9a1)" style="fill: #4e545e; stroke: #4e545e; stroke-width: 1.4; stroke-linecap: round"/>
   </g>
   <g id="text_15">
    <text style="font-weight: 600; font-size: 13px; font-family: 'Pretendard', 'system-ui', 'DejaVu Sans', sans-serif; text-anchor: start; fill: #16181d" x="24.48" y="35.133125" transform="rotate(-0 24.48 35.133125)">Prompt engineering: you are the loop</text>
   </g>
   <g id="text_16">
    <text style="font-size: 11px; font-family: 'Pretendard', 'system-ui', 'DejaVu Sans', sans-serif; text-anchor: middle; fill: #4e545e" x="182.88" y="113.672969" transform="rotate(-0 182.88 113.672969)">type the next request</text>
   </g>
   <g id="text_17">
    <text style="font-size: 11px; font-family: 'Pretendard', 'system-ui', 'DejaVu Sans', sans-serif; text-anchor: middle; fill: #4e545e" x="182.88" y="228.872969" transform="rotate(-0 182.88 228.872969)">read the reply</text>
   </g>
   <g id="text_18">
    <text style="font-size: 11px; font-family: 'Pretendard', 'system-ui', 'DejaVu Sans', sans-serif; fill: #4e545e" transform="translate(24.48 287.780879)">Every step passes through you: you decide</text>
    <text style="font-size: 11px; font-family: 'Pretendard', 'system-ui', 'DejaVu Sans', sans-serif; fill: #4e545e" transform="translate(24.48 299.812559)">what comes next and when it is done.</text>
   </g>
   <g id="text_19">
    <text style="font-weight: 600; font-size: 13px; font-family: 'Pretendard', 'system-ui', 'DejaVu Sans', sans-serif; text-anchor: start; fill: #16181d" x="373.68" y="35.133125" transform="rotate(-0 373.68 35.133125)">Loop engineering: you design the loop</text>
   </g>
   <g id="text_20">
    <text style="font-weight: 600; font-size: 13px; font-family: 'Pretendard', 'system-ui', 'DejaVu Sans', sans-serif; text-anchor: middle; fill: #16181d" x="424.08" y="188.340781" transform="rotate(-0 424.08 188.340781)">Loop spec</text>
   </g>
   <g id="text_21">
    <text style="font-size: 11px; font-family: 'Pretendard', 'system-ui', 'DejaVu Sans', sans-serif; text-anchor: middle; fill: #4e545e" x="424.08" y="208.777422" transform="rotate(-0 424.08 208.777422)">trigger</text>
   </g>
   <g id="text_22">
    <text style="font-size: 11px; font-family: 'Pretendard', 'system-ui', 'DejaVu Sans', sans-serif; text-anchor: middle; fill: #4e545e" x="424.08" y="225.933672" transform="rotate(-0 424.08 225.933672)">goal</text>
   </g>
   <g id="text_23">
    <text style="font-size: 11px; font-family: 'Pretendard', 'system-ui', 'DejaVu Sans', sans-serif; text-anchor: middle; fill: #4e545e" x="424.08" y="243.272969" transform="rotate(-0 424.08 243.272969)">check</text>
   </g>
   <g id="text_24">
    <text style="font-size: 11px; font-family: 'Pretendard', 'system-ui', 'DejaVu Sans', sans-serif; text-anchor: middle; fill: #4e545e" x="424.08" y="260.552969" transform="rotate(-0 424.08 260.552969)">stop rule</text>
   </g>
   <g id="text_25">
    <text style="font-size: 11px; font-family: 'Pretendard', 'system-ui', 'DejaVu Sans', sans-serif; text-anchor: middle; fill: #4e545e" x="424.08" y="277.832969" transform="rotate(-0 424.08 277.832969)">memory</text>
   </g>
   <g id="text_26">
    <text style="font-size: 11px; font-family: 'Pretendard', 'system-ui', 'DejaVu Sans', sans-serif; text-anchor: start; fill: #4e545e" x="432.72" y="142.472969" transform="rotate(-0 432.72 142.472969)">write once</text>
   </g>
   <g id="text_27">
    <text style="font-size: 11px; font-family: 'Pretendard', 'system-ui', 'DejaVu Sans', sans-serif; text-anchor: middle; fill: #4e545e" x="629.28" y="198.697422" transform="rotate(-0 629.28 198.697422)">not yet: go again</text>
   </g>
   <g id="text_28">
    <text style="font-size: 11px; font-family: 'Pretendard', 'system-ui', 'DejaVu Sans', sans-serif; text-anchor: start; fill: #4e545e" x="733.68" y="205.832969" transform="rotate(-0 733.68 205.832969)">passes</text>
   </g>
  </g>
 </g>
 <defs>
  <clipPath id="p37ffd0c9a1">
   <rect x="10.08" y="10.08" width="756" height="331.2"/>
  </clipPath>
 </defs>
</svg>
